<?xml version="1.0" encoding="UTF-8"?>
<svg width="32px" height="32px" viewBox="0 0 32 32" version="1.1" xmlns="http://www.w3.org/2000/svg" xmlns:xlink="http://www.w3.org/1999/xlink">
    <title>ICON/Agent/附件</title>
    <g id="ICON/Agent/附件" stroke="none" stroke-width="1" fill="none" fill-rule="evenodd">
        <rect id="矩形" x="0" y="0" width="32" height="32"></rect>
        <path d="M18.8571429,0.788888889 C22.8583831,0.788888889 26.1,4.1925866 26.1,8.38888889 L26.1,20.7638889 C26.1,26.4099386 21.739095,30.9888889 16.3571429,30.9888889 L15.6428571,30.9888889 C10.260905,30.9888889 5.9,26.4099386 5.9,20.7638889 L5.9,14.0791473 L6,13.9791473 L8.14285714,13.9791473 L8.24285714,14.0791473 L8.24285714,20.7638889 C8.24285714,25.0597222 11.5563492,28.5388889 15.6428571,28.5388889 L16.3571429,28.5388889 C20.4436508,28.5388889 23.7571429,25.0597222 23.7571429,20.7638889 L23.7571429,8.38888889 C23.7571429,5.54356064 21.5622174,3.23888889 18.8571429,3.23888889 C16.1520683,3.23888889 13.9571429,5.54356062 13.9571429,8.38888889 L13.9571429,20.2013888 C13.9571429,21.2863096 14.7929327,22.1638889 15.8214286,22.1638889 C16.8499245,22.1638889 17.6857143,21.2863096 17.6857143,20.2013888 L17.6857143,9.51388889 L17.7857143,9.41388889 L19.9285714,9.41388889 L20.0285714,9.51388889 L20.0285714,20.2013888 C20.0285714,22.6372835 18.1460901,24.6138887 15.8214286,24.6138887 C13.496767,24.6138887 11.6142858,22.6372835 11.6142857,20.2013888 L11.6142857,8.38888889 C11.6142857,4.1925866 14.8559026,0.788888889 18.8571429,0.788888889 Z" id="路径" fill="#2F3640" fill-rule="nonzero"></path>
    </g>
</svg>